# xmcd
#
# Track frame offsets: 
#        150
#        22331
#        39065
#        57274
#        73755
#        98444
#        115855
#        134199
#        148688
#        164129
#        186557
#        201781
#        223149
#        241171
#        259580
#        276127
#
# Disc length: 3919 seconds
#
# Revision: 0
# Processed by: cddbd v1.5.2PL0 Copyright (c) Steve Scherf et al.
# Submitted via: ExactAudioCopyFreeDBPlugin 1.0
#
DISCID=fc0f4d10
DTITLE=Taylor Swift - Red
DYEAR=2012
DGENRE=Country
TTITLE0=State Of Grace
TTITLE1=Red
TTITLE2=Treacherous
TTITLE3=I Knew You Were Trouble
TTITLE4=All Too Well
TTITLE5=22
TTITLE6=I Almost Do
TTITLE7=We Are Never Ever Getting Back Together
TTITLE8=Stay Stay Stay
TTITLE9=The Last Time
TTITLE10=Holy Ground
TTITLE11=Sad Beautiful Tragic
TTITLE12=The Lucky One
TTITLE13=Everything Has Changed
TTITLE14=Starlight
TTITLE15=Begin Again
EXTD=
EXTT0=
EXTT1=
EXTT2=
EXTT3=
EXTT4=
EXTT5=
EXTT6=
EXTT7=
EXTT8=
EXTT9=
EXTT10=
EXTT11=
EXTT12=
EXTT13=
EXTT14=
EXTT15=
PLAYORDER=
